<?xml version="1.0" encoding="utf-8"?>
<!-- Generator: Adobe Illustrator 24.1.1, SVG Export Plug-In . SVG Version: 6.00 Build 0)  -->
<svg version="1.1" xmlns="http://www.w3.org/2000/svg" xmlns:xlink="http://www.w3.org/1999/xlink" x="0px" y="0px"
	 viewBox="0 0 96 41" style="enable-background:new 0 0 96 41;" xml:space="preserve">
<style type="text/css">
	.st0{fill:#FFFFFF;}
</style>
<g id="Layer_1">
	<g>
		<path class="st0" d="M3.5,4.9C4.5,4.7,6.3,4.6,8,4.6c2.1,0,3.4,0.2,4.6,0.9c1.1,0.6,1.8,1.6,1.8,3c0,1.3-0.8,2.6-2.5,3.3v0.1
			c1.8,0.5,3.1,1.8,3.1,3.8c0,1.4-0.6,2.5-1.6,3.3c-1.1,0.9-3,1.4-6.1,1.4c-1.7,0-3-0.1-3.8-0.2V4.9z M7,10.8h1.1
			c1.8,0,2.8-0.8,2.8-1.9c0-1.2-0.9-1.8-2.5-1.8c-0.8,0-1.2,0-1.5,0.1V10.8z M7,17.5c0.3,0.1,0.7,0.1,1.3,0.1c1.6,0,3-0.6,3-2.2
			c0-1.5-1.4-2.1-3.1-2.1H7V17.5z"/>
		<path class="st0" d="M23.6,20l-0.2-1.1h-0.1c-0.7,0.9-1.9,1.4-3.2,1.4c-2.3,0-3.6-1.6-3.6-3.4c0-2.9,2.6-4.3,6.6-4.3v-0.1
			c0-0.6-0.3-1.4-2-1.4c-1.1,0-2.3,0.4-3.1,0.8l-0.6-2.2c0.8-0.4,2.3-1,4.3-1c3.7,0,4.9,2.2,4.9,4.8v3.9c0,1.1,0.1,2.1,0.2,2.7H23.6
			z M23.2,14.7c-1.8,0-3.2,0.4-3.2,1.8c0,0.9,0.6,1.3,1.4,1.3c0.9,0,1.6-0.6,1.8-1.3c0.1-0.2,0.1-0.4,0.1-0.6V14.7z"/>
		<path class="st0" d="M40.1,3.9v12.8c0,1.3,0,2.6,0.1,3.3h-3.1L37,18.4h0c-0.7,1.2-2.1,1.9-3.5,1.9c-2.6,0-4.8-2.3-4.8-5.7
			c0-3.7,2.3-5.9,5-5.9c1.4,0,2.4,0.5,2.9,1.3h0v-6H40.1z M36.6,13.6c0-0.2,0-0.4,0-0.6c-0.2-0.9-1-1.7-2-1.7
			c-1.6,0-2.4,1.4-2.4,3.2c0,1.9,0.9,3.1,2.4,3.1c1,0,1.8-0.7,2-1.7c0.1-0.2,0.1-0.5,0.1-0.8V13.6z"/>
		<path class="st0" d="M42.9,12.6c0-1.6,0-2.7-0.1-3.7h3l0.1,2.1H46c0.6-1.6,1.9-2.3,3-2.3c0.3,0,0.5,0,0.7,0.1V12
			c-0.3-0.1-0.5-0.1-0.9-0.1c-1.3,0-2.2,0.7-2.4,1.8c0,0.2-0.1,0.5-0.1,0.8V20h-3.5V12.6z"/>
		<path class="st0" d="M67.6,19.6c-0.6,0.3-2.1,0.7-3.9,0.7c-5.3,0-8.1-3.3-8.1-7.7c0-5.2,3.8-8.1,8.4-8.1c1.8,0,3.2,0.4,3.8,0.7
			l-0.7,2.7c-0.7-0.3-1.7-0.6-2.9-0.6c-2.7,0-4.9,1.7-4.9,5.1c0,3.1,1.8,5,4.9,5c1.1,0,2.2-0.2,2.9-0.5L67.6,19.6z"/>
		<path class="st0" d="M73.4,5.8c0,1-0.7,1.7-1.9,1.7c-1.1,0-1.8-0.8-1.8-1.7c0-1,0.7-1.7,1.8-1.7C72.7,4.1,73.4,4.8,73.4,5.8z
			 M69.8,20V8.9h3.5V20H69.8z"/>
		<path class="st0" d="M79.9,5.7v3.2h2.5v2.5h-2.5v4c0,1.3,0.3,2,1.4,2c0.4,0,0.8,0,1-0.1l0,2.6c-0.4,0.2-1.3,0.3-2.3,0.3
			c-1.1,0-2.1-0.4-2.6-1c-0.6-0.7-1-1.7-1-3.3v-4.5H75V8.9h1.5V6.5L79.9,5.7z"/>
		<path class="st0" d="M87,8.9l1.7,5.5c0.2,0.7,0.4,1.5,0.6,2.1h0.1c0.2-0.6,0.3-1.4,0.5-2.1l1.4-5.5h3.7l-2.6,7.3
			c-1.6,4.4-2.7,6.2-3.9,7.3c-1.2,1-2.5,1.4-3.3,1.5l-0.7-2.9c0.4-0.1,1-0.3,1.5-0.6c0.5-0.3,1.1-0.8,1.4-1.4
			c0.1-0.2,0.2-0.3,0.2-0.5c0-0.1,0-0.3-0.2-0.6L83.2,8.9H87z"/>
	</g>
</g>
<g id="Layer_2">
	<rect x="3.5" y="24" class="st0" width="65.5" height="15"/>
</g>
<g id="Layer_3">
	<g>
		<path d="M5.4,33.7c0.4,0.3,1.4,0.6,2.1,0.6c0.7,0,1-0.2,1-0.5c0-0.3-0.2-0.5-1.1-0.7c-1.6-0.4-2.2-1.2-2.2-2
			c0-1.3,1.2-2.2,3.1-2.2c0.9,0,1.7,0.2,2.2,0.4l-0.4,1.5c-0.3-0.2-1.1-0.4-1.7-0.4c-0.6,0-0.9,0.2-0.9,0.5c0,0.3,0.3,0.5,1.3,0.8
			c1.5,0.4,2.1,1,2.1,2.1c0,1.2-1,2.2-3.3,2.2c-1,0-1.9-0.2-2.5-0.5L5.4,33.7z"/>
		<path d="M14,32.9c0.1,0.8,1.1,1.2,2.2,1.2c0.8,0,1.5-0.1,2.2-0.3l0.3,1.5c-0.8,0.3-1.8,0.5-2.8,0.5c-2.6,0-4.1-1.4-4.1-3.5
			c0-1.5,1.1-3.6,3.8-3.6c2.6,0,3.4,1.9,3.4,3.4c0,0.3,0,0.7-0.1,0.8H14z M16.9,31.4c0-0.4-0.2-1.3-1.4-1.3c-1,0-1.5,0.8-1.5,1.3
			H16.9z"/>
		<path d="M20.5,31.1c0-1.1,0-1.7-0.1-2.3h2l0.1,1.3h0.1c0.4-1.1,1.3-1.5,2.1-1.5c0.2,0,0.3,0,0.5,0v2c-0.2,0-0.4-0.1-0.7-0.1
			c-1,0-1.5,0.5-1.6,1.1c0,0.1,0,0.3,0,0.4v3.4h-2.3V31.1z"/>
		<path d="M28.2,28.8l1.1,3.2c0.2,0.6,0.3,1.1,0.4,1.6h0.1c0.1-0.5,0.2-1,0.4-1.6l1-3.2h2.5l-2.9,6.8h-2.4l-2.8-6.8H28.2z"/>
		<path d="M37.2,26.9c0,0.6-0.5,1.1-1.3,1.1c-0.8,0-1.2-0.5-1.2-1.1c0-0.6,0.5-1.1,1.2-1.1S37.2,26.3,37.2,26.9z M34.8,35.6v-6.8
			h2.3v6.8H34.8z"/>
		<path d="M44.9,35.4c-0.5,0.2-1.3,0.4-2.2,0.4c-2.5,0-4-1.4-4-3.5c0-1.9,1.5-3.6,4.3-3.6c0.6,0,1.4,0.1,1.9,0.3l-0.4,1.6
			c-0.3-0.1-0.7-0.2-1.4-0.2c-1.3,0-2.1,0.8-2.1,1.9c0,1.2,1,1.9,2.1,1.9c0.6,0,1.1-0.1,1.5-0.2L44.9,35.4z"/>
		<path d="M48,32.9c0.1,0.8,1.1,1.2,2.2,1.2c0.8,0,1.5-0.1,2.2-0.3l0.3,1.5c-0.8,0.3-1.8,0.5-2.8,0.5c-2.6,0-4.1-1.4-4.1-3.5
			c0-1.5,1.1-3.6,3.8-3.6c2.6,0,3.4,1.9,3.4,3.4c0,0.3,0,0.7-0.1,0.8H48z M50.9,31.4c0-0.4-0.2-1.3-1.4-1.3c-1,0-1.5,0.8-1.5,1.3
			H50.9z"/>
		<path d="M54.2,30c0-0.8,0.5-1.3,1.4-1.3c0.8,0,1.4,0.5,1.4,1.3c0,0.7-0.5,1.3-1.4,1.3C54.8,31.3,54.2,30.7,54.2,30z M54.2,34.4
			c0-0.8,0.5-1.3,1.4-1.3c0.8,0,1.4,0.5,1.4,1.3c0,0.7-0.5,1.3-1.4,1.3C54.8,35.7,54.2,35.2,54.2,34.4z"/>
		<path d="M60.7,36.1l-3-10h1.5l3,10H60.7z"/>
		<path d="M66,36.1l-3-10h1.5l3,10H66z"/>
	</g>
</g>
</svg>
