<?xml version="1.0" encoding="utf-8"?>
<!-- Generator: Adobe Illustrator 24.1.1, SVG Export Plug-In . SVG Version: 6.00 Build 0)  -->
<svg version="1.1" id="Layer_1" xmlns="http://www.w3.org/2000/svg" xmlns:xlink="http://www.w3.org/1999/xlink" x="0px" y="0px"
	 viewBox="0 0 197 16" style="enable-background:new 0 0 197 16;" xml:space="preserve">
<style type="text/css">
	.st0{fill:#6D62B4;}
</style>
<g id="Layer_1_1_">
</g>
<g id="Layer_2_1_">
	<g>
		<g>
			<g>
				<g>
					<g>
						<path class="st0" d="M194.1,7.7c0.1-0.1,0-0.3-0.3-0.2l-0.1,0.4L194.1,7.7z"/>
						<path class="st0" d="M192.1,7.5c-0.3,0.2-0.6,0.6-0.4,0.8c0.3-0.4,0.4-0.3,0.6-0.7c0.3-0.1,0.5,0,0.5,0.1
							c0.1-0.1,0.4,0,0.6-0.3c-0.4-0.2-0.9-0.1-1.3,0.2C191.9,7.7,192,7.6,192.1,7.5z"/>
						<path class="st0" d="M164.7,6.9l0.2,0C164.9,6.9,164.8,6.9,164.7,6.9z"/>
						<path class="st0" d="M147.9,10.9c0.1,0,0.2-0.1,0.2-0.1C148,10.8,147.9,10.9,147.9,10.9z"/>
						<path class="st0" d="M145.1,10.6c0.1,0,0.1,0,0.2,0C145.2,10.6,145.1,10.6,145.1,10.6z"/>
						<path class="st0" d="M164.7,6.9l-0.5-0.1C164.2,7,164.5,6.9,164.7,6.9z"/>
						<path class="st0" d="M188.4,9c0.1,0,0.2-0.1,0.2-0.1L188.4,9C188.4,9,188.4,9,188.4,9z"/>
						<path class="st0" d="M172.4,8.5l0.1,0.1c0.1,0,0.1-0.1,0.1-0.1L172.4,8.5z"/>
						<path class="st0" d="M177.7,9.3c-0.1,0-0.1,0.3-0.2,0.4c0.1-0.1,0.2-0.2,0.3-0.2C177.8,9.4,177.8,9.3,177.7,9.3z"/>
						<path class="st0" d="M186.9,8.1l0.1-0.1C187,8.1,186.9,8.1,186.9,8.1z"/>
						<path class="st0" d="M168.4,6.8c0,0,0-0.1,0-0.1C168.4,6.7,168.4,6.7,168.4,6.8z"/>
						<path class="st0" d="M7.3,10.3C7.3,10.3,7.3,10.3,7.3,10.3C7.3,10.3,7.3,10.3,7.3,10.3z"/>
						<path class="st0" d="M0.8,7.9h0.1c0-0.1,0-0.1,0.1-0.2L0.8,7.9z"/>
						<path class="st0" d="M140.3,9.2C140.3,9.2,140.3,9.2,140.3,9.2C140.5,9.2,140.4,9.2,140.3,9.2z"/>
						<path class="st0" d="M92.4,4c0.5,0.5-1.1,0-0.3,0.5C92.1,4.4,93.1,4.4,92.4,4z"/>
						<path class="st0" d="M188.3,9L188,9.1C188.1,9.1,188.2,9,188.3,9z"/>
						<path class="st0" d="M92.1,4.5L92.1,4.5L92.1,4.5C92.2,4.6,92.1,4.5,92.1,4.5z"/>
						<path class="st0" d="M128.5,4.5c0,0.1,0.1,0.1,0.1,0.1C128.6,4.6,128.6,4.6,128.5,4.5z"/>
						<path class="st0" d="M137.3,8.3l-0.2-0.1C137.2,8.3,137.2,8.3,137.3,8.3z"/>
						<path class="st0" d="M123.4,4.7c-0.1,0-0.2-0.1-0.3,0c0,0,0,0,0.1,0C123.2,4.7,123.3,4.7,123.4,4.7z"/>
						<path class="st0" d="M118.3,5.4C118.4,5.4,118.4,5.4,118.3,5.4c0.2,0,0.2,0,0.3,0H118.3z"/>
						<path class="st0" d="M22.6,11.8c-0.1-0.1-0.2-0.2-0.2-0.3C22.4,11.7,21.7,11.8,22.6,11.8z"/>
						<path class="st0" d="M188.4,8.9c0,0.1-0.1,0.1-0.1,0.1C188.3,9,188.4,9,188.4,8.9C188.4,8.9,188.4,8.9,188.4,8.9z"/>
						<path class="st0" d="M123.4,6.9l-0.8,0C122.8,7,123.1,7,123.4,6.9z"/>
						<path class="st0" d="M58.8,10.9L58.6,11C58.7,11,58.8,11,58.8,10.9z"/>
						<path class="st0" d="M120.3,7.3c-0.2-0.1-0.3-0.1-0.5-0.1c0,0-0.1,0.1-0.1,0.1C120,7.3,120.2,7.3,120.3,7.3z"/>
						<path class="st0" d="M22.4,11.5L22.4,11.5L22.4,11.5z"/>
						<path class="st0" d="M17,11.8c0.8,0.1,0.4-0.3,0.6-0.5c0.9,0,0.4,0.3,0.7,0.5c0.6-0.1,1-0.4,1.5-0.3c0,0.1,0.1,0.1,0,0.2
							c0.6-0.2,1.8,0.1,2.5-0.2c0,0,0.1,0.1,0.1,0.1c-0.1-0.2-0.1-0.4-0.1-0.5c0.3,0,0.6-0.2,0.8,0.1c-0.2,0-0.2,0.1-0.3,0.1
							l0.4-0.1c0.3,0.4-0.5,0.1-0.5,0.4c0.7-0.1,1.5-0.3,2.1-0.2c0.1,0.4-1.3,0-0.6,0.4l-0.8-0.2c0.6,0.6-0.5-0.1,0,0.5
							c1.1,0.2,1.2-0.1,2.3,0.1c0.3-0.2-0.1-0.3,0.2-0.5c1.6-0.3,1.2,0.9,2.3,0.5c0.3-0.2,0.4-0.6,1.2-0.4l-0.3,0.4
							c1.1,0.1,0.6-0.5,1.7-0.2c-0.2,0.1-0.8,0.1-0.7,0.1c0.7,0.3,0.5-0.2,1.1-0.2l0.1,0.3c1.1,0,2.4-0.3,3.6-0.3
							c-0.1,0.1-0.3,0.2,0,0.3c1.6-0.1,3.4,0,4.9,0.2l0.6-0.3c0.1,0,0.3,0.1,0.1,0.2c0.6,0.1,0-0.2,0.3-0.3c0.3,0,0.5,0.2,0.2,0.3
							c1-0.3,3-0.6,4.1-0.4L44.9,12c0.9,0.1,0.9-0.6,1.7-0.4l-0.2,0.1c1.9,0,3.9-0.4,5.3-0.1c0.2-0.4,1.8,0,1.9-0.6
							c1.1,0.2,0.8,0.3,2.3,0.4c0.4,0,0.6-0.4,1-0.5l0,0.3l0.6-0.4l0.4,0.3l0.5-0.1c-0.2,0-0.4-0.1-0.4-0.2c0.7-0.2,1.8,0,1.8,0.1
							l1.7-0.5c0,0.1-0.3,0.2-0.5,0.3c0.9-0.4,0.2,0.3,1-0.1c-0.1-0.1,0-0.2,0-0.3c0.4,0.1,1.4,0,2.1-0.2l-0.1,0.2
							c1.3-0.1,2.6-0.5,4.1-0.7c-0.5,0-0.5-0.4-0.1-0.5l0.2,0.3c0.2-0.3-0.4-0.1,0.1-0.4c0.5-0.1,0.4,0.3,0.1,0.5l0.6-0.2
							c0.1,0.1-0.1,0.2-0.1,0.3c0.2-0.3,1.2,0.1,1.5-0.3l0.1,0.1c1.4-0.3,2-0.4,3.2-0.7c0-0.3,0.4-0.3,0.7-0.6
							c0.8-0.1,1.8-0.1,2.8-0.3c0.7-0.3,0.2-0.3,0.4-0.5c0.1,0.3,1.1,0,0.6,0.3c1.2-0.3,1.5-0.4,3-1c-0.2-0.1-0.4-0.1-0.3-0.2
							c0.3-0.1,0.7,0,0.6,0.1l-0.1,0c1.6-0.8,4.1-0.2,5.2-0.9l-0.1,0c0.4-0.2,0.9-0.3,1.3-0.4c0.6,0-0.3,0.2,0.1,0.3
							C89,5.6,89.5,5.6,90,5.7C90.5,5.8,90.9,6,91.5,6c0.3,0.5,0.9,0.8,1.8,1.2c0.8,0.4,1.8,0.8,2.3,1.3V8.3c0.4,0,0.4,0.3,0.6,0.4
							c0-0.1-0.3-0.3-0.1-0.3c3,1,6.3,1.7,9.4,1.6c1.2,0,0.6-0.9,2-0.7l-0.4,0.4c2.2-0.6,4.6-0.8,6.6-1.5c-0.1,0.1-0.1,0.2-0.3,0.2
							c0.5,0.1,1.7-0.3,1.6-0.5c0.3-0.1,0.1,0.2,0.3,0.2c0.5,0.1,1.1-0.5,1.3-0.3c0.1,0-0.1,0.1-0.2,0.1c0.3-0.2,1.4-0.2,1-0.5
							c0.8,0,1.5-0.4,2.1-0.3c0.4-0.4,1.4,0,1.4-0.5c0,0.4,1.4,0.2,1.9,0c-0.2,0.2,0.4,0.1,0.3,0.3c0.6,0,1.1-0.2,1-0.4
							c0.5,0.3,1,0.2,1.5,0.1c0.5-0.1,0.9-0.2,1.1,0.3c1.6-0.1,3.2,0.1,4.6,0.5c-0.1,0.2-0.5,0.1-0.9,0c-0.4-0.1-0.8-0.2-0.8,0.1
							c1.4,0.1,2.3,0.2,3.5,0.8c0.3,0.2-0.3,0.1-0.4,0.1c1.4,0.4,2.5,1.3,3.8,1.7c0,0-0.2,0-0.3,0c0.2,0.1,0.5,0.3,0.6,0.1l-0.3-0.1
							c-0.2-0.5,1.2-0.1,1.3-0.2c-0.7,0.3,1.1,0.7,0.2,1.1c0.2,0,0.4,0,0.4-0.1c0.2,0.1,0.3,0.3,0,0.3c0.9,0.3,0.7,0,1.5,0.3
							c0,0.1-0.2,0.1-0.4,0.1c0.5,0,1-0.1,1.7,0.2c-0.1,0.1,0,0.1-0.2,0.1c1.3,0.3,2.2,0,3.6,0.3c-0.4,0.4,0.5,0.1,0.5,0.5l0.8-0.1
							l-0.3-0.2c0.7,0,1.2-0.3,1.8-0.3c-0.1,0.1-0.3,0.1-0.5,0.2c0.4,0,0.8-0.1,1.2-0.2l-0.7-0.1c0.6-0.3-0.1-0.5,0.7-0.5
							c-0.2,0.1,0.6-0.1,1,0.1l0,0c0.3-0.2,0.6-0.4,1.1-0.4c0.1,0.1,0,0.4,0.1,0.5c0.2-0.4,1.4-0.4,1.8-0.9c-0.1,0.1-0.1,0.3,0,0.3
							l0.2-0.3c0.3,0,0.4,0,0.4,0.2c0.9-0.2-0.4-0.4,0.7-0.5c-0.1,0,0,0.1-0.2,0.1c1.1-0.2,1.9-0.7,2.9-0.9c0.4,0.3-0.8,0.3-0.4,0.6
							c1.3-0.5,2.6-1.3,3.9-1.6l-0.3,0c0-0.6,1,0,1.6-0.4c-0.1,0.1-0.1,0.3-0.1,0.3c0.9-0.1,1.8-0.6,3.1-0.9L164.2,8
							c0.5,0,1.4-0.1,1.9,0c0.2-0.1,0.5-0.1,0.3-0.3c0.9,0.4,1.6,0.4,2.4,0.6c0.8,0.1,1.6,0.4,2.1,1.1c-0.2-0.1-0.5-0.1-0.3,0
							c0.4,0.2,0.9,0.4,1.3,0.5c0-0.3-0.1-0.2-0.3-0.5c0.2,0,0.6,0,0.9,0.1c-0.6-0.1-0.1,0.4,0.1,0.6c0-0.1,0.1-0.1,0.1-0.2
							c0.6,0.6,0.3-0.4,1.1,0.1l-0.1,0.1c0.4,0,0.7-0.1,1.1,0c0.1,0.3-0.4,0.1-0.5,0.3c0.6,0.1,1.2-0.4,1.6-0.1
							c-0.2,0.1-0.6,0.1-0.8,0.1c0.5,0.4,0.6,0.3,1,0.3l0,0c0.3,0.1,0.6,0.1,1,0.1l-0.3-0.1c0.7-0.7,1.4-0.2,2.3-0.8
							c-0.9,0.6-0.1,0.3-0.1,0.6c0.3,0.1,0.6,0.1,0.5,0.2c0.4-0.3,0.8,0.1,1.3-0.4c0.1,0.1,0.5-0.1,0.4,0.2c0.6-0.2-0.2-0.1-0.1-0.3
							c0.8-0.5,2.1,0,3.3-0.7c1-0.4,1.2-0.8,2.1-1.1c0.4,0.1-0.2,0.4-0.2,0.4c0.6,0,1-0.1,1.5-0.3c-0.1,0.1,0,0.1,0.2,0.2
							c0.4-0.1,0.2-0.4,0.8-0.4c-0.1,0.1-0.2,0.3-0.3,0.5c0.5-0.2,0.9-0.4,1.4-0.6c0.2,0.1-0.3,0.3-0.4,0.5c0.6-0.2,1.4-0.4,1.6-0.7
							l-0.4,0c0.2-0.1,0.1,0.2,0,0.3c-0.4,0.3-0.7,0-0.8-0.1l0.4-0.1c-0.5-0.5-1.4,0.4-2.1,0.5l0.2-0.5l-0.7,0.5
							c-0.2-0.1-0.3-0.3,0-0.4c-0.6-0.1-0.4,0.2-0.9,0.1c-0.1,0,0-0.1,0-0.1l-0.5,0.2c0.1-0.1-0.1-0.3,0.2-0.3
							c-0.9-0.1-1.4,0.6-1.8,0.4l0.1,0c-1.2,0.4-0.1,0.3-0.9,0.9l-0.8-0.6L183.1,9c-0.1,0-0.4,0-0.4-0.1c-0.4,0.3,0.1,0.1-0.1,0.4
							c-0.7-0.1-1.7,0.5-1.9,0c-0.2,0.3,0.6,0.1,0,0.4c-0.3-0.5-0.8,0.2-1.4,0.1c0.1-0.3,0.7-0.2,0.1-0.4c-0.3,0.5-1.1,0.1-1.6,0.2
							c0,0.4-1,0.2-1.8,0.3c0.1-0.1-1.5-0.3-2.1-0.6l0-0.1c-0.2,0.3-0.9,0.1-1.5-0.1c0.1-0.2,0.2-0.2,0.5-0.2
							c-0.1-0.1-0.3-0.1-0.5-0.2c-0.2,0.1-0.3,0.1-0.6-0.1l0.2-0.2c-0.6-0.3-1.4-0.4-2.2-0.9c-0.1,0.2,0.4,1-0.6,0.7
							c0-0.1,0.1-0.4,0.3-0.3c-0.1,0-0.3,0-0.5-0.1l0.5-0.1c-0.4-0.3-0.3,0.1-0.6,0c0.1-0.2-0.2-0.2-0.1-0.3c0.1,0,0.3,0.2,0.4,0.2
							c-0.4-0.2-0.8-0.4-0.9-0.6c0,0.1-0.1,0.3-0.4,0.2c-0.8-0.1-0.2-0.3-0.7-0.4c-0.2,0.1-0.7-0.1-0.7,0.2c-0.2,0-0.3-0.2-0.3-0.2
							c-0.4,0.1-1.8,0.1-1.4,0.4l0.1,0c0,0,0,0-0.1,0l0,0l0,0c-1.2,0.4-2.6,0.2-3.7,0.6l0-0.1c-0.7,0.3-1.6,0.5-2,0.8
							c-0.2,0.1-0.5,0-0.5-0.2c-0.5,0.2-0.5,0.4-1.4,0.4c0.5-0.3-0.2-0.1,0.5-0.3c-0.7,0.1-0.9,0-1.6,0.5c0.2-0.3-0.6-0.1-0.9,0
							l0.5,0c-0.4,0.1-0.7,0.2-1,0.3l0.1-0.4c-1.5,0-2.3,1.4-3.6,1c-0.3,0.3,0.8,0,0.5,0.3c-0.7,0.1-1.4-0.2-1.6-0.1
							c-0.9,0-0.7,0.6-1.7,0.7c0.1,0.1,0.3,0.4-0.4,0.6c-0.7,0-0.9-0.4-0.5-0.5c0.1,0,0.2,0,0.2,0c0.2-0.1,0.5-0.2,0.2-0.3l-0.1,0.1
							c-0.3-0.1-1.2,0-1-0.2c-0.5,0.1-0.2,0.2,0.2,0.3c-0.8-0.1-1.3,0.1-2.1-0.1c0.1,0.1,0.3,0.2,0.1,0.2c-1.2-0.2-0.6,0.2-1.4,0.2
							c-0.5-0.2,0.2-0.4-0.6-0.4c-0.5-0.2-0.1-0.3,0.2-0.4c-0.8,0.1-1.3-0.4-1.7-0.6c0.1,0,0.3,0,0.4,0c-0.2,0-0.4-0.1-0.6-0.1
							l0.1,0.3c-0.2-0.1-0.4-0.2-0.4-0.3c-0.3,0.1,0.1,0.4-0.5,0.5c-0.3-0.2-1-0.2-0.9-0.6c0.9,0.5,0-0.3,0.8-0.1
							c-0.2,0-0.4-0.1-0.6-0.2c0-0.1,0.1-0.1,0.1,0c-0.8-0.6-0.5,0.2-1.5-0.3c0.2-0.1-0.1-0.4-0.2-0.4c0.4,0.2,0.1,0.4-0.4,0.3
							c-0.5-0.4-0.7-0.2-1-0.4l0.3,0.2c-0.2,0.1-0.5-0.1-0.9-0.3c0-0.1,0.4,0.1,0.3,0c-0.6,0-0.9-0.8-1.6-1
							c-0.3-0.3,0.1-0.3-0.1-0.5c-0.8-0.2-0.7-0.6-1.6-0.8c0.1,0.3,0.2,0.3-0.5,0.3c0.5,0.1,0.9,0.3,1.4,0.5l-1-0.1
							c0.4,0.2,0.9,0.3,1.1,0.4c-0.5,0-0.4-0.1-0.3,0.2c-0.4-0.6-1.1-0.3-1.7-0.8l0.3-0.5c-0.4-0.3-0.9-0.4-1.4-0.5
							c-0.5-0.1-1.1-0.1-1.7-0.3l0.4,0.2c-0.2,0.2-0.8-0.2-1.3-0.2c0.1-0.2-0.2-0.3-0.4-0.4c0,0.2-1-0.1-1.2,0.2l-0.6-0.3
							c-1.1-0.1-1.3,0.5-2.3,0.4c0.3-0.2-0.2-0.4,0.5-0.5c-0.3,0-0.7-0.1-0.7,0.1c-0.2-0.1-0.9,0.3-1.3,0.2
							c-0.1,0.1-0.2,0.3-0.6,0.3c-0.1,0,0-0.1,0-0.1c0,0.1-0.6,0.2-0.2,0.4c-1.1-0.5-2.9,0.4-3.9,0.1c-0.7,0.2-1.6,0.4-2.3,0.6
							c0-0.1,0-0.1,0.1-0.1c-0.9,0-0.4,0.7-1.5,0.7c-0.6-0.2,0.5-0.3,0.2-0.3c-0.3-0.6-1.2,0.3-2,0.1l0.2-0.1
							c-0.6-0.1-1.2,0.5-2.1,0.6c0,0,0-0.1,0-0.1c-0.5,0.4-1.6,0.7-2.4,1c0.2-0.3,0.4-0.2,0.2-0.4c-0.4,0.1,0.2,0.4-0.6,0.6
							c-0.3-0.1-0.8-0.2-0.9-0.4l0.7-0.1c-0.4-0.3-0.9,0.1-1.3,0.1l0-0.2c-1.1,0.2-1,0.5-2.2,0.6l0.1,0.1c-0.6,0.4-0.5-0.2-1.2,0.1
							l-0.2-0.4c-0.4,0.1-1.5,0.4-2.2,0.3c0.2-0.1,0.6-0.2,0.9-0.3c0.3-0.1,0.7-0.2,1-0.3c-0.2,0-0.6,0-0.9,0c-0.3,0-0.6,0-0.7,0.1
							c0.2,0,0.4-0.1,0.5,0c-0.5,0.3-1.2,0.3-2,0.2c0.1-0.4-0.4-0.5-0.9-0.7C98.6,7.2,98.3,7.1,98,7c-0.3-0.1-0.5-0.3-0.5-0.5
							c-0.7-0.1-1.3-0.4-1.9-0.8c-0.6-0.4-1.3-0.9-2.1-1.3c0.3,0.8-0.5-0.2-0.7,0.4c-0.4-0.1-0.6-0.2-0.6-0.3
							C91.8,4.3,91.4,4,91,3.8c-0.3-0.2,0.4,0,0.4-0.2c-1-0.3-0.4-0.4-1.1-0.6c0.1,0.2-0.4,0.3-1,0.1c0.3,0.1,0.5,0.2,0.8,0.3
							c-0.7,0.1-1,0-1.3-0.2c-0.3-0.1-0.6-0.3-1.3,0C87.8,3.2,87.9,3.1,88,3c-0.7,0.1-2.6,0.3-3.1,1c-0.1,0-0.3-0.2,0-0.3
							C83.4,4,81.7,5,80.5,5l0.1-0.2c-0.3,0.1-0.4,0.4-0.8,0.3c0-0.1,0.1-0.2-0.1-0.2c-0.1,0.1-0.7,0.4-1.1,0.4l0.3-0.2
							c-1.5,0.2-2.1,0.9-3.3,1.2c-0.1-0.4-1.3-0.3-1.8-0.3l0-0.1c-1.7,0.3-2.8,0.9-4.4,1.3c-1.1-0.3-3.3,0.3-5,0.3
							c0.3,0,0,0.4-0.3,0.4c-0.4,0-1,0.4-1,0.1l0.1,0C63,7.8,62.3,8,61.7,8.1l0,0.5c-1.7-0.6-4.1,0.8-5,0.2C56.3,9,55.8,9,55.4,9.2
							l0-0.3c-1,0-1.6,0-2.9,0.2l0.3-0.2c-0.7,0.1-0.8,0.9-1.5,0.9L51,9.4c-1.3,0.1-2.6-0.2-3.8,0.3c0-0.1,0-0.2,0.3-0.2
							c-0.6,0-2.3-0.2-2.1,0.4c0-0.4-1.3,0-2,0.2l0.1-0.3c-0.6,0.4-0.6,0.5-1.4,0.6c-0.2,0-0.2-0.2,0.1-0.1
							c-0.7-0.1-0.5,0.3-1.3,0.1l0.3-0.2c-0.7,0-0.6,0.1-1,0.3c-0.4,0.1-1.3-0.1-1.4-0.3c-0.1,0.2-0.5,0.4-0.8,0.3
							c0-0.1,0.1-0.2,0.2-0.2c-1.1-0.2-1.7,0.3-2.4,0.1c0-0.1-0.1-0.1-0.1-0.2c0.9,0,1.6,0,1.5,0.1c0-0.3-0.7-0.3-0.2-0.6
							c-0.6,0.2-1.5,0.6-2.2,0.5c0,0-0.1-0.1-0.1-0.1l0.1,0c-0.2,0-0.3,0-0.4,0c-0.2,0-0.4-0.1-0.6-0.1c-0.1-0.2-0.8-0.1-1.2-0.1
							c0,0.3-0.4,0.2,0,0.5c-0.1,0,0.1,0,0.3,0c0,0,0.1,0,0.2,0l0,0c0.2,0,0.5,0,0.9,0c-0.3,0.1-0.6,0.3-1,0.1
							c-0.2,0.2-0.4,0.4-0.5,0.4c-0.5-0.4-1.4-0.6-1.5-0.9c-1.1,0.1-2.5,0-3.3,0.5c-0.3,0.1-0.4-0.2-0.5-0.3c0.2-0.1,0.4,0,0.5-0.1
							c-0.6,0.1-1.8,0-2,0.3c-0.8-0.2,0.5-0.3-0.6-0.3l0.1-0.1c-2-0.7-3.5,0.8-5.7-0.2c0.2,0.1,0.2,0.1,0.3,0.1
							c-1.3-0.3-2.7-0.3-4-0.4c-1.4-0.1-2.7-0.2-4-0.6c-0.7-0.2-0.8,0-1.3,0.1l-0.1-0.3L9.5,8.9C8.4,9,7.7,7.9,6.3,8.2l0.2,0.2
							C5.9,8.3,4.8,8.3,4.9,8.1c0,0-0.2,0.2-0.4,0l0-0.2L3.3,8C2.4,7.8,3.6,7.4,2.2,7.2c-0.5,0-1.5,0.2-1.4,0.3
							c0.2,0,0.5,0.2,0.5,0.3H0.9C0.7,8.3,0.3,8.7,1.4,9.2l0.9-0.1l0.2,0.3L1.8,9.3c0.3,0.3,0.6,0.1,0.9,0.1c0,0.1,0.1,0.2,0.3,0.3
							l0.9-0.3c0.1,0.2-0.4,0.3,0.1,0.5c0.4-0.1-0.3-0.5,0.3-0.5C4.6,9.6,4.5,9.7,5,9.6C5,9.7,4.9,9.8,4.7,9.8
							C5.1,9.7,5.8,9.9,6,9.7c0.4,0.3,1.4,0.1,1.3,0.6c0.1-0.1,0.8-0.2,1.1-0.2c-0.8,0.4,1.4,0.2,1.1,0.8c0.6-0.4,1.8,0,2.8-0.1
							c-0.1,0-0.2,0.1-0.2,0.1c0.5,0.1,0.6,0.3,0.9,0.4c0.1-0.4,0.9-0.4,1.4-0.6c0.6,0.4-0.4,0.4-0.3,0.8c0-0.3,1.1-0.2,0.9-0.5
							c0.4,0.3,0.4,0.2,0.6,0.5c0.1-0.5,0.5,0,0.9-0.3c0.7,0.3,0.1,0.5,0.9,0.4C17.7,11.6,17,11.8,17,11.8z M34.9,11.8L34.9,11.8
							c-0.2,0-0.3,0-0.4,0C34.7,11.8,34.8,11.8,34.9,11.8z M36.4,11.8c-0.2,0-0.4,0-0.7,0c0-0.1,0-0.2,0.2-0.2
							C35.9,11.7,36.2,11.7,36.4,11.8z M33.3,9.9c0.2,0,0.3,0,0.3,0.1c-0.1,0-0.2,0-0.4,0c0,0,0,0,0,0C33.2,9.9,33.3,9.9,33.3,9.9z"
							/>
						<path class="st0" d="M32.9,10.2C32.8,10.2,32.8,10.2,32.9,10.2C32.8,10.3,32.9,10.3,32.9,10.2l0.1,0
							C33,10.2,32.9,10.2,32.9,10.2z"/>
						<path class="st0" d="M165,6.9L165,6.9C165,7,165,7,165,6.9C165,7,165,7,165,6.9z"/>
						<polygon class="st0" points="57.2,11.3 57.2,11.2 57,11.3 						"/>
						<path class="st0" d="M172.6,10c0,0,0,0.1,0.1,0.1C172.7,10.1,172.6,10.1,172.6,10z"/>
						<path class="st0" d="M176.3,10.7c0.2,0,0.4,0.1,0.5,0.1C176.6,10.8,176.4,10.7,176.3,10.7z"/>
						<path class="st0" d="M179.1,10.7c0-0.1,0-0.1,0-0.1h0L179.1,10.7z"/>
						<path class="st0" d="M136.6,10.1c0,0-0.1,0-0.1,0C136.2,10,136.4,10,136.6,10.1z"/>
						<path class="st0" d="M149.6,11.7c-0.1,0.1-0.3,0.1-0.4,0.2C149.4,11.9,149.6,11.9,149.6,11.7z"/>
						<polygon class="st0" points="123.4,6.9 123.4,6.9 123.4,6.9 						"/>
						<path class="st0" d="M148.6,12c0.2,0,0.4,0,0.6-0.1C149,11.9,148.8,11.9,148.6,12z"/>
						<path class="st0" d="M190.8,8.6l0.1,0c0,0,0,0,0-0.1L190.8,8.6z"/>
						<path class="st0" d="M190.9,8.5l0.1-0.1C191,8.5,191,8.5,190.9,8.5z"/>
						<path class="st0" d="M191.4,8.3l-0.3,0.1C191.2,8.4,191.3,8.4,191.4,8.3z"/>
						<path class="st0" d="M187.2,9.1l0,0.1C187.2,9.2,187.2,9.2,187.2,9.1z"/>
						<path class="st0" d="M186.2,9.4c0.3,0,0.7,0.1,1,0l0-0.1C187.1,9.4,186.4,9.2,186.2,9.4z"/>
						<path class="st0" d="M181.4,9l0.9-0.1c-0.2-0.1-0.4-0.2,0-0.3C181.1,8.5,182.6,8.8,181.4,9z"/>
						<path class="st0" d="M178.6,9.3c0.5-0.1,0-0.2,0-0.2C178.3,9.2,178.2,9.3,178.6,9.3z"/>
						<path class="st0" d="M158.5,8.1l0-0.3C158.1,8,158.5,8,158.5,8.1z"/>
						<polygon class="st0" points="155.1,10.6 155.6,10.6 155.6,10.3 						"/>
						<polygon class="st0" points="152.4,9.5 152.6,9.4 152,9.6 						"/>
						<path class="st0" d="M119.2,5l0.2,0.3C119.6,5.2,119.6,4.8,119.2,5z"/>
						<path class="st0" d="M104.6,7.8c-0.2-0.1-0.6-0.2-0.8-0.1C104.1,7.8,104.4,7.8,104.6,7.8z"/>
						<polygon class="st0" points="60.8,8.3 61.1,8.1 60.5,8.3 						"/>
					</g>
				</g>
			</g>
		</g>
	</g>
</g>
</svg>
