<?xml version="1.0" encoding="utf-8"?>
<!-- Generator: Adobe Illustrator 24.1.1, SVG Export Plug-In . SVG Version: 6.00 Build 0)  -->
<svg version="1.1" id="Layer_1" xmlns="http://www.w3.org/2000/svg" xmlns:xlink="http://www.w3.org/1999/xlink" x="0px" y="0px"
	 viewBox="0 0 197 16" style="enable-background:new 0 0 197 16;" xml:space="preserve">
<style type="text/css">
	.st0{fill:#4837BB;}
</style>
<g id="Layer_1_1_">
</g>
<g id="Layer_2_1_">
	<g>
		<g>
			<g>
				<g>
					<g>
						<path class="st0" d="M194.06,7.73c0.09-0.1-0.01-0.28-0.28-0.19l-0.14,0.36L194.06,7.73z"/>
						<path class="st0" d="M192.05,7.5c-0.3,0.22-0.63,0.57-0.36,0.83c0.27-0.38,0.37-0.26,0.65-0.7c0.27-0.09,0.51,0.01,0.49,0.14
							c0.08-0.1,0.45-0.01,0.56-0.25c-0.41-0.18-0.88-0.1-1.32,0.2C191.95,7.67,192.03,7.56,192.05,7.5z"/>
						<path class="st0" d="M164.74,6.92l0.19,0.02C164.88,6.93,164.81,6.92,164.74,6.92z"/>
						<path class="st0" d="M147.9,10.9c0.13-0.02,0.18-0.06,0.18-0.09C147.97,10.84,147.87,10.87,147.9,10.9z"/>
						<path class="st0" d="M145.07,10.65c0.06,0.01,0.11,0.02,0.16,0.02C145.17,10.64,145.11,10.63,145.07,10.65z"/>
						<path class="st0" d="M164.74,6.92l-0.49-0.05C164.24,6.98,164.51,6.92,164.74,6.92z"/>
						<path class="st0" d="M188.41,9.02c0.09-0.03,0.17-0.08,0.23-0.13l-0.23,0.08C188.41,8.98,188.41,9,188.41,9.02z"/>
						<path class="st0" d="M172.36,8.54l0.12,0.05c0.05-0.02,0.1-0.05,0.15-0.08L172.36,8.54z"/>
						<path class="st0" d="M177.73,9.26c-0.13,0-0.15,0.28-0.19,0.41c0.07-0.12,0.16-0.18,0.27-0.21
							C177.8,9.4,177.78,9.34,177.73,9.26z"/>
						<path class="st0" d="M186.9,8.15l0.15-0.07C187.02,8.1,186.95,8.13,186.9,8.15z"/>
						<path class="st0" d="M168.4,6.75c0-0.04-0.02-0.08-0.04-0.11C168.35,6.67,168.37,6.71,168.4,6.75z"/>
						<path class="st0" d="M7.29,10.32c0.01-0.02,0-0.03,0.01-0.05C7.26,10.29,7.25,10.31,7.29,10.32z"/>
						<path class="st0" d="M0.78,7.86h0.1c0.02-0.05,0.04-0.1,0.05-0.15L0.78,7.86z"/>
						<path class="st0" d="M140.31,9.16c0.01,0.01,0.01,0.01,0.02,0.01C140.46,9.2,140.39,9.18,140.31,9.16z"/>
						<path class="st0" d="M92.4,3.99c0.49,0.45-1.06-0.05-0.29,0.54C92.07,4.38,93.06,4.43,92.4,3.99z"/>
						<path class="st0" d="M188.25,9.01l-0.24,0.05C188.13,9.05,188.2,9.03,188.25,9.01z"/>
						<path class="st0" d="M92.12,4.52L92.12,4.52l0.08,0.06C92.16,4.56,92.14,4.54,92.12,4.52z"/>
						<path class="st0" d="M128.47,4.52c0.02,0.05,0.07,0.1,0.11,0.14C128.58,4.63,128.56,4.59,128.47,4.52z"/>
						<path class="st0" d="M137.28,8.33l-0.18-0.14C137.16,8.26,137.23,8.3,137.28,8.33z"/>
						<path class="st0" d="M123.43,4.72c-0.13-0.01-0.18-0.05-0.35,0c0.02,0.01,0.03,0.02,0.06,0.03
							C123.19,4.71,123.28,4.69,123.43,4.72z"/>
						<path class="st0" d="M118.35,5.36c0.03,0.02,0.07,0.03,0.1,0.04c0.05-0.01,0.11-0.03,0.16-0.04H118.35z"/>
						<path class="st0" d="M22.59,11.8c-0.11-0.09-0.17-0.18-0.22-0.27C22.44,11.74,21.69,11.77,22.59,11.8z"/>
						<path class="st0" d="M188.38,8.86c-0.02,0.08-0.05,0.12-0.12,0.15c0.06-0.02,0.11-0.03,0.16-0.05
							C188.42,8.92,188.42,8.88,188.38,8.86z"/>
						<path class="st0" d="M123.36,6.95l-0.76,0.01C122.81,6.97,123.09,6.97,123.36,6.95z"/>
						<path class="st0" d="M58.81,10.93l-0.18,0.06C58.7,10.98,58.77,10.96,58.81,10.93z"/>
						<path class="st0" d="M120.33,7.27c-0.15-0.08-0.31-0.11-0.46-0.12c-0.03,0.03-0.06,0.05-0.08,0.09
							C119.97,7.25,120.15,7.25,120.33,7.27z"/>
						<path class="st0" d="M22.37,11.53L22.37,11.53L22.37,11.53z"/>
						<path class="st0" d="M17.04,11.77c0.76,0.07,0.39-0.33,0.57-0.53c0.92-0.03,0.4,0.31,0.69,0.52c0.58-0.05,1.04-0.35,1.46-0.3
							c0.03,0.06,0.11,0.09,0,0.16c0.62-0.24,1.79,0.14,2.51-0.19c0.05,0.04,0.07,0.07,0.09,0.1c-0.1-0.19-0.11-0.38-0.07-0.51
							c0.34,0.01,0.65-0.19,0.76,0.05c-0.21-0.02-0.23,0.08-0.34,0.15l0.36-0.08c0.3,0.37-0.5,0.09-0.51,0.35
							c0.71-0.07,1.54-0.31,2.07-0.18c0.09,0.35-1.26,0.04-0.56,0.38l-0.82-0.18c0.6,0.57-0.5-0.07,0.04,0.54
							c1.09,0.16,1.23-0.1,2.32,0.07c0.26-0.17-0.07-0.28,0.19-0.46c1.56-0.25,1.18,0.91,2.34,0.5c0.3-0.22,0.43-0.64,1.24-0.39
							l-0.29,0.37c1.06,0.07,0.62-0.53,1.72-0.23c-0.2,0.14-0.83,0.1-0.68,0.15c0.71,0.33,0.51-0.2,1.07-0.18l0.11,0.34
							c1.13-0.02,2.37-0.27,3.62-0.32c-0.07,0.1-0.28,0.21,0.01,0.31c1.58-0.14,3.36,0.04,4.89,0.21l0.57-0.3
							c0.13,0,0.25,0.13,0.11,0.19c0.6,0.1,0.03-0.19,0.31-0.31c0.34-0.03,0.45,0.16,0.24,0.25c1.04-0.25,2.95-0.64,4.07-0.37
							l-0.21,0.1c0.86,0.08,0.94-0.64,1.74-0.4l-0.15,0.06c1.86,0.04,3.89-0.4,5.34-0.05c0.24-0.43,1.85,0.04,1.92-0.57
							c1.08,0.19,0.79,0.32,2.3,0.38c0.4-0.01,0.56-0.42,1.04-0.53l0.04,0.31l0.63-0.39l0.39,0.32l0.45-0.13
							c-0.19,0-0.4-0.09-0.39-0.18c0.7-0.23,1.77,0,1.81,0.15l1.67-0.47c-0.02,0.13-0.3,0.2-0.52,0.31c0.87-0.42,0.21,0.3,1-0.09
							c-0.12-0.06,0.04-0.19,0.05-0.25c0.44,0.14,1.38,0.01,2.07-0.18l-0.1,0.23c1.27-0.13,2.64-0.49,4.05-0.7
							c-0.52-0.02-0.46-0.4-0.06-0.5l0.22,0.29c0.23-0.25-0.45-0.05,0.06-0.38c0.53-0.05,0.41,0.3,0.13,0.46l0.62-0.22
							c0.05,0.09-0.09,0.17-0.11,0.3c0.23-0.25,1.16,0.13,1.48-0.28l0.05,0.09c1.41-0.25,2.03-0.45,3.16-0.7
							c-0.03-0.28,0.43-0.31,0.72-0.6c0.85-0.08,1.82-0.05,2.83-0.28c0.68-0.28,0.16-0.27,0.44-0.5c0.11,0.25,1.1,0,0.62,0.3
							c1.19-0.32,1.53-0.4,3-0.96c-0.19-0.06-0.38-0.07-0.31-0.17c0.27-0.1,0.65-0.04,0.64,0.09L81.7,6.78
							c1.64-0.75,4.07-0.24,5.23-0.93l-0.07,0.04c0.43-0.16,0.86-0.31,1.3-0.42c0.61,0.01-0.35,0.21,0.1,0.35
							c0.69-0.25,1.25-0.2,1.74-0.1c0.5,0.11,0.92,0.25,1.49,0.31c0.27,0.5,0.95,0.8,1.76,1.21C94.06,7.63,95,8.09,95.6,8.55V8.34
							c0.42-0.02,0.38,0.26,0.63,0.4c0.01-0.14-0.32-0.3-0.07-0.3c2.96,1,6.27,1.72,9.44,1.62c1.16-0.04,0.56-0.95,2.01-0.71
							l-0.36,0.38c2.22-0.65,4.57-0.75,6.63-1.51c-0.11,0.1-0.09,0.2-0.3,0.24c0.5,0.14,1.66-0.34,1.62-0.53
							c0.33-0.05,0.11,0.16,0.34,0.21c0.48,0.05,1.06-0.52,1.34-0.34c0.05,0.03-0.11,0.1-0.19,0.14c0.27-0.17,1.36-0.24,1.03-0.46
							c0.81-0.02,1.48-0.38,2.14-0.33c0.36-0.39,1.36-0.03,1.44-0.49c0,0.45,1.41,0.18,1.89-0.03c-0.16,0.15,0.44,0.11,0.26,0.32
							c0.56-0.04,1.07-0.16,0.96-0.38c0.52,0.26,1.03,0.18,1.49,0.09c0.46-0.08,0.88-0.15,1.13,0.25c1.64-0.08,3.17,0.1,4.61,0.5
							c-0.11,0.19-0.49,0.07-0.87-0.04c-0.38-0.08-0.75-0.16-0.78,0.08c1.37,0.13,2.27,0.15,3.53,0.84c0.31,0.22-0.28,0.08-0.42,0.1
							c1.38,0.44,2.48,1.32,3.78,1.72c-0.02,0.04-0.17,0.01-0.31-0.02c0.24,0.11,0.52,0.34,0.58,0.15l-0.26-0.07
							c-0.24-0.46,1.22-0.07,1.33-0.2c-0.67,0.34,1.13,0.7,0.17,1.07c0.18,0.04,0.42,0.04,0.44-0.1c0.22,0.15,0.27,0.25-0.04,0.28
							c0.94,0.28,0.7-0.04,1.52,0.27c-0.04,0.09-0.22,0.07-0.35,0.14c0.49-0.02,0.97-0.05,1.67,0.23c-0.06,0.05,0,0.14-0.21,0.08
							c1.28,0.32,2.24-0.03,3.6,0.26c-0.43,0.43,0.47,0.15,0.54,0.52l0.77-0.11l-0.31-0.18c0.67,0,1.22-0.32,1.79-0.25
							c-0.15,0.08-0.31,0.13-0.47,0.2c0.41-0.04,0.81-0.14,1.21-0.21l-0.7-0.05c0.63-0.27-0.12-0.46,0.74-0.47
							c-0.16,0.07,0.63-0.08,1,0.06l0,0c0.29-0.18,0.59-0.35,1.07-0.37c0.15,0.09-0.01,0.43,0.09,0.48
							c0.24-0.37,1.45-0.43,1.75-0.86c-0.11,0.11-0.06,0.3-0.01,0.33l0.19-0.31c0.31,0,0.36,0.03,0.36,0.19
							c0.87-0.2-0.4-0.38,0.67-0.47c-0.07,0.04-0.03,0.07-0.18,0.15c1.05-0.19,1.91-0.74,2.87-0.91c0.38,0.27-0.78,0.34-0.37,0.55
							c1.31-0.48,2.62-1.29,3.93-1.57l-0.25,0.03c0.04-0.55,1.03-0.02,1.62-0.42c-0.15,0.08-0.14,0.34-0.11,0.27
							c0.9-0.13,1.77-0.57,3.1-0.93l-0.15,0.16c0.54,0.04,1.38-0.09,1.94-0.03c0.16-0.14,0.48-0.11,0.29-0.31
							c0.86,0.41,1.61,0.42,2.4,0.56c0.78,0.14,1.55,0.41,2.12,1.06c-0.17-0.09-0.46-0.11-0.33-0.04c0.42,0.17,0.86,0.35,1.32,0.51
							c-0.01-0.26-0.11-0.2-0.3-0.5c0.22-0.04,0.61,0.03,0.93,0.15c-0.63-0.1-0.15,0.35,0.08,0.56c-0.02-0.08,0.1-0.12,0.1-0.2
							c0.58,0.63,0.25-0.38,1.13,0.14l-0.08,0.11c0.38,0.02,0.74-0.07,1.13,0.01c0.13,0.29-0.41,0.06-0.47,0.28
							c0.58,0.09,1.16-0.37,1.65-0.08c-0.24,0.06-0.59,0.05-0.83,0.1c0.54,0.36,0.62,0.28,1.04,0.34l-0.04-0.01
							c0.33,0.05,0.65,0.09,0.98,0.13l-0.25-0.08c0.68-0.72,1.45-0.21,2.33-0.8c-0.85,0.55-0.12,0.27-0.14,0.58
							c0.25,0.05,0.63,0.09,0.54,0.19c0.41-0.31,0.78,0.07,1.34-0.39c0.05,0.09,0.47-0.08,0.42,0.18c0.56-0.18-0.17-0.14-0.14-0.27
							c0.81-0.49,2.12,0,3.29-0.69c1.04-0.39,1.18-0.76,2.15-1.11c0.37,0.09-0.21,0.4-0.21,0.4c0.57,0.04,0.98-0.07,1.47-0.28
							c-0.09,0.1,0.03,0.15,0.21,0.23c0.41-0.1,0.21-0.4,0.78-0.37c-0.07,0.13-0.16,0.32-0.34,0.46c0.47-0.18,0.91-0.45,1.4-0.64
							c0.17,0.14-0.25,0.31-0.41,0.46c0.55-0.19,1.43-0.44,1.56-0.73l-0.38-0.02c0.2-0.05,0.15,0.21,0.01,0.28
							c-0.44,0.3-0.72,0.04-0.76-0.05l0.35-0.13c-0.48-0.49-1.42,0.37-2.15,0.48l0.22-0.47l-0.67,0.48
							c-0.18-0.08-0.33-0.28,0.01-0.41c-0.56-0.1-0.43,0.23-0.92,0.1c-0.06-0.03-0.04-0.05,0-0.07l-0.48,0.22
							c0.08-0.11-0.14-0.27,0.18-0.27c-0.95-0.06-1.4,0.59-1.8,0.35l0.07-0.04c-1.23,0.38-0.06,0.32-0.94,0.86l-0.78-0.62
							l-0.07,0.32c-0.13,0.01-0.39,0.04-0.37-0.09c-0.44,0.3,0.11,0.11-0.13,0.36c-0.68-0.15-1.7,0.46-1.92,0
							c-0.18,0.27,0.63,0.07-0.01,0.35c-0.28-0.48-0.76,0.23-1.37,0.07c0.14-0.29,0.69-0.23,0.09-0.38
							c-0.28,0.51-1.11,0.05-1.57,0.17c0.01,0.36-1.03,0.24-1.83,0.32c0.05-0.11-1.49-0.28-2.14-0.62l0.03-0.05
							c-0.22,0.32-0.94,0.06-1.47-0.1c0.11-0.19,0.23-0.23,0.53-0.22c-0.15-0.06-0.31-0.12-0.46-0.19
							c-0.16,0.06-0.33,0.05-0.65-0.07l0.24-0.19c-0.63-0.29-1.4-0.38-2.21-0.94c-0.14,0.22,0.38,0.95-0.57,0.72
							c0.02-0.14,0.07-0.38,0.33-0.33c-0.09-0.02-0.32-0.01-0.46-0.12l0.46-0.07c-0.37-0.26-0.28,0.09-0.6-0.04
							c0.07-0.19-0.2-0.21-0.11-0.35c0.1,0.01,0.27,0.17,0.42,0.15c-0.36-0.18-0.81-0.41-0.94-0.6c0.01,0.12-0.06,0.26-0.35,0.22
							c-0.75-0.11-0.22-0.28-0.66-0.44c-0.2,0.11-0.69-0.06-0.71,0.24c-0.22-0.01-0.26-0.15-0.34-0.23c-0.4,0.1-1.83,0.13-1.36,0.41
							l0.1,0.01c-0.02,0.01-0.04,0.01-0.06,0.02l0,0l0,0c-1.2,0.4-2.58,0.22-3.74,0.63l-0.02-0.1c-0.69,0.27-1.55,0.48-1.99,0.82
							c-0.21,0.06-0.54-0.03-0.48-0.17c-0.51,0.23-0.54,0.35-1.35,0.43c0.48-0.33-0.23-0.09,0.51-0.29
							c-0.71,0.13-0.92,0.03-1.57,0.52c0.17-0.32-0.61-0.14-0.91,0.03l0.53,0.02c-0.35,0.15-0.68,0.23-1.01,0.31l0.08-0.37
							c-1.5,0.04-2.32,1.42-3.56,1.04c-0.31,0.32,0.8-0.04,0.54,0.31c-0.66,0.14-1.44-0.19-1.63-0.14
							c-0.91,0.01-0.72,0.64-1.67,0.69c0.14,0.1,0.31,0.4-0.39,0.6c-0.67,0.04-0.86-0.39-0.46-0.54c0.15-0.03,0.23,0,0.23,0.04
							c0.2-0.07,0.47-0.16,0.2-0.25l-0.07,0.13c-0.34-0.06-1.21,0.03-1.02-0.19c-0.47,0.14-0.19,0.21,0.17,0.25
							c-0.83-0.11-1.29,0.08-2.13-0.06c0.13,0.07,0.25,0.21,0.12,0.2c-1.23-0.2-0.56,0.19-1.42,0.17c-0.46-0.24,0.22-0.38-0.63-0.38
							c-0.48-0.22-0.05-0.33,0.16-0.39c-0.78,0.1-1.33-0.42-1.71-0.6c0.13,0.01,0.27,0.02,0.4,0.02c-0.24,0-0.42-0.07-0.6-0.13
							l0.14,0.3c-0.21-0.11-0.39-0.17-0.36-0.26c-0.28,0.07,0.05,0.44-0.48,0.47c-0.26-0.22-0.96-0.24-0.94-0.58
							c0.89,0.49,0.02-0.33,0.82-0.06c-0.16-0.02-0.35-0.1-0.55-0.23c-0.02-0.05,0.06-0.05,0.12-0.04
							c-0.76-0.64-0.54,0.16-1.46-0.28c0.19-0.1-0.06-0.4-0.23-0.44c0.36,0.18,0.05,0.36-0.36,0.3c-0.52-0.42-0.69-0.24-0.99-0.41
							l0.32,0.24c-0.2,0.09-0.48-0.08-0.92-0.25c0.03-0.14,0.42,0.11,0.3-0.02c-0.6,0.03-0.88-0.84-1.63-0.99
							c-0.25-0.26,0.12-0.31-0.1-0.52c-0.84-0.17-0.7-0.63-1.59-0.83c0.14,0.32,0.2,0.28-0.46,0.25c0.47,0.14,0.92,0.3,1.38,0.46
							l-0.98-0.08c0.39,0.19,0.89,0.26,1.1,0.41c-0.48-0.02-0.41-0.05-0.31,0.22c-0.37-0.58-1.14-0.31-1.66-0.8l0.25-0.54
							c-0.44-0.32-0.91-0.42-1.43-0.5c-0.52-0.06-1.08-0.08-1.73-0.32l0.4,0.21c-0.23,0.19-0.82-0.19-1.27-0.17
							c0.08-0.19-0.19-0.29-0.36-0.44c0,0.15-1-0.14-1.16,0.24l-0.58-0.33c-1.1-0.14-1.27,0.53-2.29,0.44
							c0.31-0.21-0.17-0.36,0.53-0.5c-0.35-0.01-0.67-0.05-0.67,0.09c-0.21-0.11-0.95,0.33-1.28,0.16c-0.14,0.1-0.17,0.3-0.56,0.31
							c-0.05-0.04-0.01-0.1-0.01-0.1c0.01,0.1-0.59,0.17-0.23,0.37c-1.12-0.5-2.91,0.41-3.88,0.06c-0.73,0.18-1.59,0.43-2.25,0.57
							c0.03-0.07-0.02-0.1,0.11-0.1c-0.95,0-0.45,0.66-1.52,0.68c-0.59-0.2,0.51-0.28,0.16-0.33c-0.28-0.61-1.22,0.35-2,0.12
							l0.16-0.07c-0.57-0.11-1.24,0.5-2.11,0.63c0,0,0.03-0.06-0.01-0.1c-0.52,0.44-1.63,0.74-2.44,0.98
							c0.22-0.3,0.36-0.2,0.16-0.43c-0.37,0.1,0.18,0.4-0.56,0.58c-0.26-0.1-0.82-0.15-0.93-0.42l0.7-0.11
							c-0.41-0.31-0.9,0.13-1.28,0.12l0.03-0.16c-1.06,0.18-1.04,0.53-2.2,0.6l0.13,0.11c-0.62,0.44-0.54-0.19-1.16,0.1l-0.19-0.4
							c-0.41,0.09-1.46,0.39-2.22,0.33c0.23-0.12,0.56-0.19,0.9-0.25c0.34-0.08,0.7-0.17,0.96-0.25c-0.2,0-0.55,0-0.87,0.03
							c-0.32,0-0.62,0.02-0.73,0.1c0.17-0.02,0.38-0.09,0.53-0.01c-0.51,0.25-1.21,0.33-2.03,0.22c0.14-0.36-0.36-0.53-0.95-0.7
							c-0.29-0.09-0.61-0.17-0.88-0.28c-0.25-0.14-0.46-0.31-0.54-0.5c-0.69-0.14-1.34-0.37-1.95-0.79c-0.62-0.4-1.27-0.9-2.12-1.29
							c0.33,0.82-0.5-0.23-0.65,0.39c-0.4-0.14-0.55-0.2-0.58-0.25c-0.36-0.27-0.76-0.51-1.18-0.72c-0.28-0.24,0.45-0.05,0.45-0.18
							C90.4,3.36,91.02,3.26,90.36,3c0.11,0.23-0.39,0.25-0.96,0.14c0.26,0.11,0.52,0.22,0.78,0.35c-0.7,0.08-0.98-0.04-1.28-0.18
							c-0.29-0.12-0.61-0.26-1.28-0.04c0.14-0.08,0.28-0.15,0.42-0.22C87.33,3.18,85.48,3.36,84.97,4
							c-0.13-0.04-0.31-0.17-0.04-0.28C83.36,4,81.72,5.01,80.49,4.98l0.08-0.17c-0.27,0.11-0.42,0.38-0.8,0.32
							c0-0.06,0.08-0.17-0.05-0.15c-0.13,0.08-0.68,0.42-1.06,0.42l0.28-0.24c-1.48,0.15-2.14,0.87-3.34,1.23
							c-0.09-0.43-1.26-0.34-1.84-0.3l0.01-0.07c-1.7,0.29-2.81,0.88-4.36,1.34c-1.05-0.28-3.35,0.34-4.97,0.31
							c0.25,0.04,0.01,0.35-0.26,0.43C63.8,8.07,63.2,8.55,63.2,8.15l0.13-0.01C63,7.8,62.25,8,61.65,8.06L61.62,8.6
							c-1.65-0.58-4.06,0.8-4.99,0.18c-0.36,0.17-0.83,0.21-1.19,0.38l-0.01-0.28c-1.05,0.03-1.58,0.04-2.86,0.23l0.25-0.23
							c-0.73,0.05-0.85,0.88-1.53,0.95L51.04,9.4c-1.28,0.09-2.59-0.18-3.82,0.28c0.02-0.06,0.05-0.19,0.25-0.22
							c-0.6,0.03-2.34-0.18-2.09,0.39c-0.03-0.38-1.32,0.02-2,0.22l0.1-0.28c-0.57,0.38-0.58,0.48-1.4,0.61
							c-0.19-0.03-0.18-0.22,0.08-0.15c-0.65-0.13-0.49,0.27-1.28,0.14l0.29-0.18c-0.66-0.01-0.61,0.08-0.97,0.3
							c-0.41,0.12-1.26-0.05-1.36-0.3c-0.09,0.16-0.45,0.37-0.84,0.3c-0.05-0.09,0.09-0.16,0.16-0.19
							c-1.11-0.16-1.65,0.34-2.41,0.06c-0.02-0.09-0.07-0.14-0.13-0.17c0.88,0.02,1.59,0.03,1.52,0.05c0-0.25-0.71-0.3-0.15-0.65
							c-0.57,0.19-1.54,0.6-2.23,0.48c-0.03-0.03-0.07-0.05-0.09-0.09l0.07-0.03c-0.16-0.03-0.3,0-0.44,0.04
							c-0.22-0.04-0.36-0.08-0.57-0.08c-0.08-0.21-0.81-0.12-1.16-0.13c0.02,0.28-0.44,0.23-0.01,0.47
							c-0.06-0.02,0.07-0.03,0.3-0.04c0.05-0.01,0.12-0.01,0.15-0.03l-0.02,0.02c0.23,0,0.54-0.01,0.88-0.01
							c-0.28,0.14-0.58,0.26-0.97,0.1c-0.18,0.18-0.39,0.36-0.5,0.45c-0.48-0.39-1.41-0.64-1.53-0.88C29.79,10,28.33,9.9,27.62,10.4
							c-0.31,0.06-0.35-0.16-0.46-0.25c0.18-0.05,0.39-0.03,0.49-0.1c-0.62,0.12-1.82-0.02-1.99,0.33
							c-0.77-0.21,0.45-0.31-0.61-0.32l0.15-0.1c-2.05-0.73-3.47,0.76-5.73-0.21c0.16,0.06,0.23,0.09,0.26,0.15
							c-1.31-0.29-2.67-0.31-4.03-0.4c-1.36-0.1-2.71-0.22-3.98-0.63c-0.73-0.19-0.83,0.03-1.31,0.14l-0.12-0.32l-0.8,0.22
							c-1.13,0.1-1.78-1-3.23-0.71l0.15,0.23c-0.49-0.1-1.58-0.14-1.47-0.35C4.89,8.1,4.75,8.25,4.57,8.12l0.01-0.16L3.33,8.02
							C2.41,7.75,3.58,7.43,2.22,7.17C1.7,7.14,0.69,7.38,0.86,7.52c0.2,0.04,0.51,0.18,0.5,0.34H0.88
							C0.71,8.31,0.26,8.71,1.36,9.23l0.85-0.15l0.22,0.27l-0.68-0.1C2.1,9.52,2.37,9.38,2.67,9.3c0.04,0.13,0.14,0.23,0.3,0.3
							l0.86-0.31c0.07,0.2-0.41,0.3,0.1,0.49c0.4-0.14-0.29-0.46,0.34-0.49C4.62,9.55,4.48,9.71,4.96,9.6
							C5.01,9.73,4.9,9.79,4.71,9.81c0.42-0.08,1.07,0.12,1.32-0.1c0.36,0.31,1.37,0.12,1.27,0.55c0.14-0.09,0.76-0.24,1.13-0.21
							c-0.75,0.43,1.38,0.22,1.13,0.76c0.56-0.39,1.84,0.04,2.76-0.13c-0.05,0.03-0.16,0.1-0.24,0.06c0.5,0.1,0.63,0.25,0.94,0.38
							c0.11-0.38,0.9-0.38,1.35-0.58c0.57,0.45-0.42,0.42-0.27,0.8c0-0.32,1.1-0.19,0.92-0.48c0.45,0.29,0.39,0.16,0.6,0.51
							c0.13-0.48,0.45-0.03,0.87-0.3c0.66,0.3,0.13,0.47,0.89,0.39C17.73,11.65,17.04,11.77,17.04,11.77z M34.94,11.81L34.94,11.81
							c-0.15,0.01-0.28,0.02-0.37,0.02C34.65,11.83,34.75,11.82,34.94,11.81z M36.44,11.82c-0.18-0.01-0.41-0.02-0.65-0.02
							c-0.05-0.1,0-0.2,0.16-0.19C35.86,11.68,36.21,11.74,36.44,11.82z M33.29,9.85c0.24-0.04,0.31,0.02,0.35,0.08
							c-0.11,0-0.24,0.01-0.41,0.03c-0.01,0.01-0.02,0.02-0.03,0.03C33.22,9.93,33.25,9.88,33.29,9.85z"/>
						<path class="st0" d="M32.87,10.21c-0.03,0.01-0.05,0.02-0.1,0.02c0.05,0.03,0.09,0.05,0.14,0.06l0.08-0.09
							C32.95,10.21,32.91,10.21,32.87,10.21z"/>
						<path class="st0" d="M164.96,6.95h-0.03c0.03,0.01,0.05,0.02,0.07,0.03C164.98,6.96,164.98,6.96,164.96,6.95z"/>
						<polygon class="st0" points="57.16,11.25 57.15,11.18 57.03,11.25 						"/>
						<path class="st0" d="M172.6,10.02c0.01,0.03,0.03,0.06,0.08,0.11C172.69,10.1,172.65,10.06,172.6,10.02z"/>
						<path class="st0" d="M176.27,10.71c0.17,0.03,0.35,0.07,0.53,0.1C176.57,10.76,176.4,10.72,176.27,10.71z"/>
						<path class="st0" d="M179.1,10.66c0.03-0.05,0.03-0.09,0.04-0.13h-0.01L179.1,10.66z"/>
						<path class="st0" d="M136.58,10.09c-0.03-0.02-0.07-0.03-0.1-0.04C136.23,9.98,136.39,10.04,136.58,10.09z"/>
						<path class="st0" d="M149.59,11.72c-0.13,0.08-0.25,0.15-0.39,0.21C149.43,11.91,149.61,11.88,149.59,11.72z"/>
						<polygon class="st0" points="123.44,6.95 123.44,6.95 123.36,6.95 						"/>
						<path class="st0" d="M148.59,12.02c0.24,0.03,0.44-0.01,0.61-0.09C149,11.95,148.77,11.95,148.59,12.02z"/>
						<path class="st0" d="M190.81,8.58l0.13-0.01c-0.01-0.02,0-0.03,0.01-0.05L190.81,8.58z"/>
						<path class="st0" d="M190.94,8.52l0.14-0.06C191.02,8.47,190.96,8.48,190.94,8.52z"/>
						<path class="st0" d="M191.37,8.33l-0.29,0.13C191.19,8.44,191.32,8.42,191.37,8.33z"/>
						<path class="st0" d="M187.23,9.14l-0.02,0.11C187.23,9.22,187.24,9.19,187.23,9.14z"/>
						<path class="st0" d="M186.16,9.38c0.26-0.03,0.69,0.09,1.03-0.04l0.02-0.09C187.07,9.43,186.37,9.16,186.16,9.38z"/>
						<path class="st0" d="M181.41,9.02l0.92-0.09c-0.18-0.08-0.41-0.18-0.01-0.28C181.12,8.54,182.6,8.83,181.41,9.02z"/>
						<path class="st0" d="M178.61,9.32c0.47-0.11-0.03-0.16-0.01-0.22C178.31,9.23,178.24,9.26,178.61,9.32z"/>
						<path class="st0" d="M158.53,8.12l-0.02-0.26C158.15,8.01,158.53,7.96,158.53,8.12z"/>
						<polygon class="st0" points="155.14,10.55 155.55,10.6 155.65,10.32 						"/>
						<polygon class="st0" points="152.4,9.46 152.55,9.38 151.98,9.63 						"/>
						<path class="st0" d="M119.2,4.96l0.17,0.29C119.61,5.15,119.61,4.79,119.2,4.96z"/>
						<path class="st0" d="M104.59,7.78c-0.17-0.14-0.58-0.21-0.82-0.07C104.09,7.75,104.43,7.83,104.59,7.78z"/>
						<polygon class="st0" points="60.82,8.28 61.1,8.14 60.55,8.29 						"/>
					</g>
				</g>
			</g>
		</g>
	</g>
</g>
</svg>
