<?xml version="1.0" encoding="utf-8"?>
<!-- Generator: Adobe Illustrator 24.1.1, SVG Export Plug-In . SVG Version: 6.00 Build 0)  -->
<svg version="1.1" xmlns="http://www.w3.org/2000/svg" xmlns:xlink="http://www.w3.org/1999/xlink" x="0px" y="0px"
	 viewBox="0 0 197 16" style="enable-background:new 0 0 197 16;" xml:space="preserve">
<style type="text/css">
	.st0{fill:#00B6ED;}
	.st1{fill:#EA599B;}
</style>
<g id="Layer_1">
</g>
<g id="Layer_2">
	<g>
		<g>
			<g>
				<g>
					<g>
						<path d="M23.67,15.03L23.15,2.87c-2.17,0.09-4.39,0.18-6.46,0.3c-2.07,0.11-4.03,0.19-5.89,0.21l0.12,12.17
							C15.19,15.5,19.43,15.16,23.67,15.03z"/>
					</g>
					<g>
						<path class="st0" d="M23.67,15.03L23.15,2.87c-2.17,0.09-4.39,0.18-6.46,0.3c-2.07,0.11-4.03,0.19-5.89,0.21l0.12,12.17
							C15.19,15.5,19.43,15.16,23.67,15.03z"/>
					</g>
					<path class="st1" d="M37.19,1.87c-3.96,0.08-7.08,3.17-6.97,6.86c0.12,3.7,3.33,6.6,7.18,6.53L37.19,1.87z"/>
					<path class="st1" d="M0.83,1.77c1.14,0.33,2.14,1.26,2.92,2.6c0.76,1.34,1.29,3.05,1.11,4.9c-0.17,1.83-1.04,3.45-2.44,4.47
						c-1.39,1.03-3.32,1.46-5.25,0.91L0.83,1.77z"/>
				</g>
				<g>
					<g>
						<path d="M63.75,14.64L63.9,2.47c-4.27-0.05-8.56-0.1-12.87-0.1l-0.03,12.17C55.25,14.55,59.5,14.59,63.75,14.64z"/>
					</g>
					<g>
						<path class="st0" d="M63.75,14.64L63.9,2.47c-4.27-0.05-8.56-0.1-12.87-0.1l-0.03,12.17C55.25,14.55,59.5,14.59,63.75,14.64z"
							/>
					</g>
					<path class="st1" d="M77.7,2.1c-3.88-0.06-7.06,2.88-7.12,6.58c-0.06,3.69,3.03,6.74,6.9,6.81L77.7,2.1z"/>
					<path class="st1" d="M37.19,1.87c3.95-0.04,7.16,2.92,7.17,6.61c0.01,3.7-3.1,6.72-6.96,6.77L37.19,1.87z"/>
				</g>
				<g>
					<g>
						<polygon points="103.85,15.18 103.89,3 91.26,2.89 91.1,15.06 						"/>
					</g>
					<g>
						<polygon class="st0" points="103.85,15.18 103.89,3 91.26,2.89 91.1,15.06 						"/>
					</g>
					<path class="st1" d="M117.41,2.35c-3.79,0.04-6.85,3.08-6.84,6.77c0.01,3.71,3.16,6.66,7.05,6.62L117.41,2.35z"/>
					<path class="st1" d="M77.7,2.1c3.86,0.06,6.94,3.11,6.89,6.81c-0.06,3.69-3.24,6.64-7.11,6.57L77.7,2.1z"/>
				</g>
				<g>
					<g>
						<path d="M143.95,14.03l-0.87-12.14c-4.11,0.25-8.22,0.53-12.36,0.67l0.5,12.16C135.46,14.58,139.71,14.29,143.95,14.03z"/>
					</g>
					<g>
						<path class="st0" d="M143.95,14.03l-0.87-12.14c-4.11,0.25-8.22,0.53-12.36,0.67l0.5,12.16
							C135.46,14.58,139.71,14.29,143.95,14.03z"/>
					</g>
					<path class="st1" d="M156.5,0.12c-2.06,0.19-3.71,1.11-4.82,2.44c-1.11,1.31-1.72,3.04-1.56,4.88
						c0.17,1.84,1.09,3.44,2.47,4.54c1.38,1.08,3.2,1.65,5.11,1.47L156.5,0.12z"/>
					<path class="st1" d="M117.4,2.35c3.79-0.04,6.92,2.84,7.04,6.54c0.11,3.68-2.95,6.79-6.83,6.84L117.4,2.35z"/>
				</g>
				<g>
					<g>
						<path d="M183.76,14.61l1.8-12.04c-3.88-0.57-8.21-1.42-13.12-1.94l-1.26,12.11C175.38,13.18,179.55,13.98,183.76,14.61z"/>
					</g>
					<g>
						<path class="st0" d="M183.76,14.61l1.8-12.04c-3.88-0.57-8.21-1.42-13.12-1.94l-1.26,12.11
							C175.38,13.18,179.55,13.98,183.76,14.61z"/>
					</g>
					<path class="st1" d="M196.27,2.62c-1.25,0.09-2.42,0.89-3.46,2.06c-1,1.2-1.82,2.79-1.94,4.65c-0.13,1.83,0.49,3.59,1.7,4.81
						c1.2,1.26,3.03,1.97,5.02,1.8L196.27,2.62z"/>
					<path class="st1" d="M156.5,0.12c2.05-0.19,4.1,0.42,5.6,1.57c1.5,1.15,2.42,2.82,2.44,4.67c0.02,1.85-0.8,3.52-2.02,4.79
						c-1.23,1.26-2.9,2.13-4.81,2.3L156.5,0.12z"/>
				</g>
			</g>
		</g>
	</g>
</g>
</svg>
