<?xml version="1.0" encoding="utf-8"?>
<!-- Generator: Adobe Illustrator 24.1.1, SVG Export Plug-In . SVG Version: 6.00 Build 0)  -->
<svg version="1.1" xmlns="http://www.w3.org/2000/svg" xmlns:xlink="http://www.w3.org/1999/xlink" x="0px" y="0px"
	 viewBox="0 0 197 16" style="enable-background:new 0 0 197 16;" xml:space="preserve">
<g id="Layer_1">
</g>
<g id="Layer_2">
	<path d="M199.06,1.62c-3.99-0.84-7.75-0.49-11.58,0.93c-3.73,1.38-7.3,3.66-11.34,3.87c-0.34,0.02-0.65,0.07-0.95,0.14
		c-14.4,0.17-28.83,0.27-43.19-0.96c-14.73-1.26-29.34-4.19-44.17-3.03C73.22,3.71,59.43,7,44.84,3.76
		c-7.18-1.59-14.2-3.18-21.62-2.73C16,1.46,8.92,3.16,1.91,4.88c-6.25,1.54-3.6,11.18,2.66,9.64c7.03-1.73,14.12-3.53,21.4-3.59
		c7.47-0.07,14.46,2.38,21.75,3.59c14.14,2.36,27.86-1.22,41.94-2.09c14.52-0.9,28.88,2.08,43.29,3.25
		c14.92,1.21,29.9,1.02,44.85,0.84c1.02-0.01,1.88-0.28,2.58-0.71c1.95-0.45,3.84-1.11,5.77-1.94c3.17-1.36,6.67-3.37,10.24-2.62
		C202.68,12.59,205.36,2.95,199.06,1.62z"/>
</g>
</svg>
