<?xml version="1.0" encoding="utf-8"?>
<!-- Generator: Adobe Illustrator 24.1.1, SVG Export Plug-In . SVG Version: 6.00 Build 0)  -->
<svg version="1.1" xmlns="http://www.w3.org/2000/svg" xmlns:xlink="http://www.w3.org/1999/xlink" x="0px" y="0px"
	 viewBox="0 0 197 16" style="enable-background:new 0 0 197 16;" xml:space="preserve">
<g id="Layer_1">
</g>
<g id="Layer_2">
	<path d="M220.63,12.64c-0.67-0.31-1.34-0.62-2.01-0.93c-1.52-0.7-2.99-0.62-4.23-0.08c-10.24-0.89-20.48-1.77-30.72-2.66
		c-1.08-0.09-2.16-0.19-3.24-0.29c0.68-4.12,0.59-8.11-0.22-12.29c-0.39-2.04-2.77-3.78-4.82-3.67
		c-20.86,1.12-41.54,11.33-62.47,11.37c-0.61-1.4-1.89-2.61-3.29-2.92C94.9-2.04,80.28,0.47,65.81,3.64
		c-1.36-0.97-2.9-1.53-4.71-1.38C56.97,2.6,52.79,6.1,49.27,9.6c-0.94-1.7-1.88-3.39-2.82-5.09C44.78,1.49,40.98,1.5,38.6,3.5
		c-1.3,1.09-2.49,2.26-3.64,3.46c-0.42-0.73-0.85-1.47-1.27-2.2c-1.68-2.92-5.48-3.13-7.85-1.01c-0.31,0.28-0.61,0.56-0.9,0.84
		C24.64,4.14,24.33,3.7,24,3.26c-1.54-2.04-4.17-3.11-6.42-2.04c-0.24-0.63-0.5-1.27-0.79-1.91c-1.17-2.61-4.62-2.85-6.84-1.79
		c-0.64,0.3-1.26,0.62-1.87,0.96c1.61-6.13-7.93-8.72-9.67-2.56C-2.88,0.5-3.49,5.13-3.43,9.9c0.06,4.16,5.53,6.82,8.54,3.54
		c1.37-1.5,2.81-2.8,4.35-3.96c0.05,0.52,0.08,1.04,0.09,1.58c0.08,4.25,5.45,6.7,8.54,3.54c0.16-0.16,0.31-0.32,0.47-0.48
		c0.21,0.61,0.41,1.24,0.58,1.9c0.99,3.88,7.33,5.22,9.14,1.19c0.16-0.34,0.31-0.68,0.48-1l1.14,1.98c2,3.47,6.53,2.97,8.63,0
		c0.75-1.06,1.57-2.05,2.41-3c0.98,1.77,1.96,3.54,2.94,5.31c1.55,2.79,5.65,3.29,7.85,1.01c2.66-2.74,6.85-5.29,9.11-8.3
		c0.32,0.54,0.64,1.07,0.96,1.61c1.13,1.91,2.27,3.82,3.4,5.73c1.52,2.56,5.74,3.54,7.85,1.01c2.67-3.2,5.03-6.53,7.02-10.2
		c0.07-0.14,0.14-0.28,0.2-0.42c5.14-0.85,10.31-1.4,15.48-1.34c0.21,0.61,0.51,1.21,0.95,1.77c2.93,3.79,7.39,4.58,10.43,2.6
		c0.33-0.03,0.67-0.1,1.01-0.19c13.99,0.68,27.46-3.15,41.05-6.51c-0.93,0.74-1.78,1.61-2.53,2.66c-2.15,2.99,0.71,7.81,4.32,7.52
		c10.9-0.86,21.84,0.58,32.69,1.52c11.48,0.99,22.96,1.99,34.44,2.98C222.94,22.37,225.08,14.68,220.63,12.64z M170.95,3.08
		c0,0.31-0.01,0.62-0.02,0.93c-1.58-0.1-3.21-0.22-4.85-0.3C167.7,3.47,169.32,3.25,170.95,3.08z"/>
</g>
</svg>
